<?xml version="1.0" standalone="no"?>
<!DOCTYPE svg PUBLIC "-//W3C//DTD SVG 20010904//EN"
 "http://www.w3.org/TR/2001/REC-SVG-20010904/DTD/svg10.dtd">
<svg version="1.0" xmlns="http://www.w3.org/2000/svg"
 width="260.000000pt" height="260.000000pt" viewBox="0 0 260.000000 260.000000"
 preserveAspectRatio="xMidYMid meet">
<metadata>
Created by potrace 1.14, written by Peter Selinger 2001-2017
</metadata>
<g transform="translate(0.000000,260.000000) scale(0.100000,-0.100000)"
fill="#000000" stroke="none">
<path d="M1169 2596 c-2 -2 -24 -6 -49 -10 -25 -3 -58 -8 -75 -12 -16 -4 -37
-8 -45 -9 -25 -4 -74 -17 -85 -24 -11 -6 -32 -12 -52 -13 -7 -1 -13 -4 -13 -8
0 -4 -6 -7 -12 -7 -36 -1 -232 -106 -313 -168 -97 -74 -279 -255 -257 -255 4
0 2 -4 -4 -8 -15 -10 -82 -110 -100 -147 -7 -16 -18 -37 -23 -45 -13 -21 -63
-131 -65 -144 -1 -6 -5 -17 -9 -23 -5 -7 -6 -13 -2 -13 3 0 0 -10 -7 -22 -6
-13 -13 -30 -14 -38 -1 -8 -5 -25 -8 -37 -25 -95 -29 -141 -30 -303 -1 -205
13 -301 68 -450 9 -25 18 -49 19 -55 1 -5 4 -12 7 -15 3 -3 23 -41 44 -85 39
-78 87 -157 113 -183 7 -7 13 -17 13 -20 0 -4 23 -31 50 -61 28 -30 50 -58 50
-62 0 -5 4 -9 10 -9 13 0 50 -37 50 -51 0 -5 4 -8 8 -5 5 3 15 -3 24 -12 24
-27 58 -53 58 -44 1 4 9 -3 18 -14 10 -12 27 -24 38 -28 11 -3 29 -14 40 -24
23 -21 173 -94 229 -112 22 -7 45 -15 50 -19 6 -3 15 -6 20 -8 46 -10 56 -12
63 -17 4 -2 28 -7 52 -11 25 -3 62 -10 83 -15 64 -14 364 -5 442 13 128 30
139 34 220 66 206 83 409 230 530 385 17 22 36 45 42 52 7 7 13 17 13 23 0 6
5 11 10 11 6 0 10 6 10 14 0 8 4 16 9 18 11 4 103 178 93 178 -4 0 -2 4 4 8 5
4 22 41 36 82 38 112 48 148 64 245 3 17 7 96 8 177 3 146 -8 233 -48 393 -3
11 -14 40 -27 73 -5 12 -13 32 -18 45 -12 31 -93 189 -103 202 -5 5 -22 31
-38 56 -16 25 -43 60 -60 77 -17 18 -29 32 -27 32 2 0 -21 25 -51 55 -30 30
-59 55 -63 55 -5 0 -13 9 -19 20 -6 11 -17 20 -25 20 -8 0 -15 4 -15 9 0 10
-93 74 -160 110 -25 13 -48 28 -51 33 -3 5 -10 8 -15 7 -5 -1 -35 10 -66 25
-134 64 -292 96 -489 101 -81 2 -148 2 -150 1z"/>
</g>
</svg>
